<?xml version="1.0" encoding="UTF-8"?>
<svg id="Layer_1" xmlns="http://www.w3.org/2000/svg" version="1.1" viewBox="0 0 75 59.4">
  <!-- Generator: Adobe Illustrator 29.3.1, SVG Export Plug-In . SVG Version: 2.1.0 Build 151)  -->
  <defs>
    <style>
      .st0 {
        fill: #fff;
      }
    </style>
  </defs>
  <path class="st0" d="M63.1,0H11.9C5.3,0,0,5.3,0,11.9v35.6c0,6.6,5.3,11.9,11.9,11.9h51.2c6.6,0,11.9-5.3,11.9-11.9V11.9c0-6.6-5.3-11.9-11.9-11.9ZM50,32.9L14.5,51.5c-.4.2-.8,0-1.1-.2-.2-.3-.2-.8,0-1.1l16.1-16-10.5-5.3c-.3-.1-.5-.4-.5-.7s.2-.6.4-.8L54.8,7.9c.4-.2.8,0,1.1.2.2.3.2.8,0,1.1l-16.3,16.9,10.6,5.3c.3.1.5.4.5.7s-.2.6-.5.8c0,0-.2,0-.2,0ZM61.3,22.9l-2.5.8c-1.3.4-2.2,1.4-2.7,2.7l-.8,2.5c-.2.5-.8.5-1,0l-.8-2.5c-.4-1.3-1.4-2.2-2.7-2.7l-2.5-.8c-.5-.1-.5-.8,0-.9l2.5-.8c1.3-.4,2.2-1.4,2.7-2.7l.8-2.5c.2-.5.8-.5,1,0l.8,2.5c.4,1.3,1.4,2.3,2.7,2.7l2.5.8c.5.2.5.8,0,.9Z"/>
</svg>