<?xml version="1.0" encoding="UTF-8"?>
<svg id="Layer_1" xmlns="http://www.w3.org/2000/svg" version="1.1" viewBox="0 0 3017.5 658.8">
  <!-- Generator: Adobe Illustrator 29.3.1, SVG Export Plug-In . SVG Version: 2.1.0 Build 151)  -->
  <defs>
    <style>
      .st0 {
        fill: #fff;
      }

      .st1 {
        fill: #f97316;
      }
    </style>
  </defs>
  <path class="st0" d="M1013.5,371c23.5,22.6,58.8,40.4,101.1,40.4s34.8-6.1,34.8-18.3-13.2-18.3-44.2-24c-51.7-9.4-130.7-21.6-130.7-100.1s44.2-101.5,130.2-101.5,97.3,14.6,133,43.7l-50.8,67.2c-27.3-20.7-62.5-31-87.4-31s-28.7,8.5-28.7,16.5c0,12.2,12.7,16.5,46.1,22.1,51.7,8.9,128.3,24,128.3,96.4s-51.2,109-135.4,109-112.3-19.7-145.7-49.8l49.4-70.5h0q0-.1,0-.1ZM1416.8,485.6v-126.4c0-23.5-12.7-31.5-32.9-31.5s-29.1,9.9-36.2,17.9v140.1h-84.6V172.1h84.6v112.3c13.2-15,38.1-31.5,78-31.5s75.7,31,75.7,70.5v162.2h-84.6ZM1521.1,371.9c0-63.5,47-118.9,127.4-118.9s127.8,55.5,127.8,118.9-47,119.4-127.8,119.4-127.4-55.9-127.4-119.4ZM1689.4,371.9c0-24.9-14.6-44.2-40.9-44.2s-40.4,19.3-40.4,44.2,14.6,44.7,40.4,44.7,40.9-19.3,40.9-44.7ZM1895.4,253c51.7,0,83.7,23.5,96.4,42.8l-54.5,51.2c-7.1-10.8-20.2-19.3-38.1-19.3s-44.7,15-44.7,44.2,20.7,44.7,44.7,44.7,31-9.4,38.1-19.7l54.5,51.7c-12.7,18.8-44.7,42.8-96.4,42.8s-127.4-47-127.4-119.4,55.5-118.9,127.4-118.9h0ZM2147.8,485.6l-39-73.3-16.5,22.1v51.2h-84.6V172.1h84.6v167.3l52.2-80.8h102l-78,103.4,83.2,123.6h-103.9ZM2336,485.6l-87.9-227h89.3l43.2,129.7,43.7-129.7h89.3l-87.9,227h-89.8,0ZM2671.6,485.6v-25.4c-13.2,14.6-38.1,31-78,31s-75.2-31.5-75.2-70.5v-162.2h84.6v126c0,23,12.2,32,32.9,32s28.7-9.9,35.7-17.9v-140.1h84.6v227h-84.6q0,.1,0,0ZM2899.5,253c66.7,0,118,47.9,118,127.8v17.4h-154.2c4.7,14.6,21.2,28.7,49.8,28.7s40-7.1,51.2-16l34.8,52.2c-22.6,19.3-63,28.2-96.8,28.2-71,0-126.4-44.7-126.4-119.4s50.3-118.9,123.6-118.9h0ZM2862.4,344.6h74.7c-2.4-9.9-10.3-27.3-37.6-27.3s-34.3,16.9-37.1,27.3h0Z"/>
  <path class="st1" d="M700.2,0H132.1C59.2,0,0,59.2,0,132.1v394.5c0,73,59.2,132.1,132.1,132.1h568c73,0,132.1-59.2,132.1-132.1V132.1C832.3,59.2,773.2,0,700.2,0ZM555.1,364.4l-393.6,207.1c-4,2.1-9.1,1-11.8-2.7-2.7-3.7-2.3-8.9.9-12.1l178.4-177.7-116.9-58.8c-3.1-1.5-5.1-4.7-5.1-8.2s1.8-6.7,4.8-8.3l395.7-216.4c4-2.2,9.1-1.1,11.9,2.6,2.8,3.7,2.5,8.8-.7,12.1l-181,186.9,117.2,58.9c3.1,1.5,5.1,4.8,5.2,8.2,0,3.5-1.9,6.7-5,8.4ZM680.6,254.5l-27.7,9.3c-14,4.7-25,15.8-29.8,29.8l-9.3,27.6c-1.7,5-8.8,5-10.5,0l-9.3-27.6c-4.7-14-15.8-25-29.8-29.8l-27.7-9.3c-5-1.7-5-8.8,0-10.5l27.7-9.3c14-4.7,25-15.8,29.8-29.8l9.3-27.6c1.7-5,8.8-5,10.5,0l9.3,27.6c4.7,14,15.8,25,29.8,29.8l27.7,9.3c5,1.7,5,8.8,0,10.5Z"/>
  <path class="st0" d="M680.6,254.5l-27.7,9.3c-14,4.7-25,15.8-29.8,29.8l-9.3,27.6c-1.7,5-8.8,5-10.5,0l-9.3-27.6c-4.7-14-15.8-25-29.8-29.8l-27.7-9.3c-5-1.7-5-8.8,0-10.5l27.7-9.3c14-4.7,25-15.8,29.8-29.8l9.3-27.6c1.7-5,8.8-5,10.5,0l9.3,27.6c4.7,14,15.8,25,29.8,29.8l27.7,9.3c5,1.7,5,8.8,0,10.5Z"/>
  <path class="st0" d="M618.7,102l-181,186.9,117.2,58.9c3.1,1.5,5.1,4.8,5.2,8.2,0,3.5-1.9,6.7-5,8.4l-393.6,207.1c-4,2.1-9.1,1-11.8-2.7-2.7-3.7-2.3-8.9.9-12.1l178.4-177.7-116.9-58.8c-3.1-1.5-5.1-4.7-5.1-8.2s1.8-6.7,4.8-8.3l395.7-216.4c4-2.2,9.1-1.1,11.9,2.6,2.8,3.7,2.5,8.8-.7,12.1Z"/>
</svg>